<svg
  width="79"
  height="15"
  viewBox="0 0 79 15"
  fill="none"
  xmlns="http://www.w3.org/2000/svg"
>
  <path
    d="M17.476 2.066L14.365 14H10.846L8.942 6.146L6.97 14H3.451L0.425 2.066H3.536L5.253 10.753L7.378 2.066H10.574L12.614 10.753L14.348 2.066H17.476ZM24.7649 4.412C25.8529 4.412 26.7256 4.77467 27.3829 5.5C28.0402 6.214 28.3689 7.2 28.3689 8.458V14H25.4789V8.849C25.4789 8.21433 25.3145 7.72133 24.9859 7.37C24.6572 7.01867 24.2152 6.843 23.6599 6.843C23.1045 6.843 22.6625 7.01867 22.3339 7.37C22.0052 7.72133 21.8409 8.21433 21.8409 8.849V14H18.9339V1.42H21.8409V5.789C22.1355 5.36967 22.5379 5.03533 23.0479 4.786C23.5579 4.53667 24.1302 4.412 24.7649 4.412ZM34.707 14.136C33.7776 14.136 32.939 13.9377 32.191 13.541C31.4543 13.1443 30.8706 12.5777 30.44 11.841C30.0206 11.1043 29.811 10.243 29.811 9.257C29.811 8.28233 30.0263 7.42667 30.457 6.69C30.8876 5.942 31.477 5.36967 32.225 4.973C32.973 4.57633 33.8116 4.378 34.741 4.378C35.6703 4.378 36.509 4.57633 37.257 4.973C38.005 5.36967 38.5943 5.942 39.025 6.69C39.4556 7.42667 39.671 8.28233 39.671 9.257C39.671 10.2317 39.45 11.093 39.008 11.841C38.5773 12.5777 37.9823 13.1443 37.223 13.541C36.475 13.9377 35.6363 14.136 34.707 14.136ZM34.707 11.62C35.2623 11.62 35.7326 11.416 36.118 11.008C36.5146 10.6 36.713 10.0163 36.713 9.257C36.713 8.49767 36.5203 7.914 36.135 7.506C35.761 7.098 35.2963 6.894 34.741 6.894C34.1743 6.894 33.704 7.098 33.33 7.506C32.956 7.90267 32.769 8.48633 32.769 9.257C32.769 10.0163 32.9503 10.6 33.313 11.008C33.687 11.416 34.1516 11.62 34.707 11.62ZM40.6352 9.24C40.6352 8.26533 40.8165 7.40967 41.1792 6.673C41.5532 5.93633 42.0575 5.36967 42.6922 4.973C43.3268 4.57633 44.0352 4.378 44.8172 4.378C45.4858 4.378 46.0695 4.514 46.5682 4.786C47.0782 5.058 47.4692 5.415 47.7412 5.857V4.514H50.6482V14H47.7412V12.657C47.4578 13.099 47.0612 13.456 46.5512 13.728C46.0525 14 45.4688 14.136 44.8002 14.136C44.0295 14.136 43.3268 13.9377 42.6922 13.541C42.0575 13.133 41.5532 12.5607 41.1792 11.824C40.8165 11.076 40.6352 10.2147 40.6352 9.24ZM47.7412 9.257C47.7412 8.53167 47.5372 7.95933 47.1292 7.54C46.7325 7.12067 46.2452 6.911 45.6672 6.911C45.0892 6.911 44.5962 7.12067 44.1882 7.54C43.7915 7.948 43.5932 8.51467 43.5932 9.24C43.5932 9.96533 43.7915 10.5433 44.1882 10.974C44.5962 11.3933 45.0892 11.603 45.6672 11.603C46.2452 11.603 46.7325 11.3933 47.1292 10.974C47.5372 10.5547 47.7412 9.98233 47.7412 9.257ZM64.8553 4.412C66.0339 4.412 66.9689 4.769 67.6603 5.483C68.3629 6.197 68.7143 7.18867 68.7143 8.458V14H65.8243V8.849C65.8243 8.237 65.6599 7.76667 65.3313 7.438C65.0139 7.098 64.5719 6.928 64.0053 6.928C63.4386 6.928 62.9909 7.098 62.6623 7.438C62.3449 7.76667 62.1863 8.237 62.1863 8.849V14H59.2963V8.849C59.2963 8.237 59.1319 7.76667 58.8033 7.438C58.4859 7.098 58.0439 6.928 57.4773 6.928C56.9106 6.928 56.4629 7.098 56.1343 7.438C55.8169 7.76667 55.6583 8.237 55.6583 8.849V14H52.7513V4.514H55.6583V5.704C55.9529 5.30733 56.3383 4.99567 56.8143 4.769C57.2903 4.531 57.8286 4.412 58.4293 4.412C59.1433 4.412 59.7779 4.565 60.3333 4.871C60.8999 5.177 61.3419 5.61333 61.6593 6.18C61.9879 5.65867 62.4356 5.23367 63.0023 4.905C63.5689 4.57633 64.1866 4.412 64.8553 4.412ZM72.2094 3.528C71.6994 3.528 71.28 3.38067 70.9514 3.086C70.634 2.78 70.4754 2.406 70.4754 1.964C70.4754 1.51067 70.634 1.13667 70.9514 0.841999C71.28 0.535999 71.6994 0.382999 72.2094 0.382999C72.708 0.382999 73.116 0.535999 73.4334 0.841999C73.762 1.13667 73.9264 1.51067 73.9264 1.964C73.9264 2.406 73.762 2.78 73.4334 3.086C73.116 3.38067 72.708 3.528 72.2094 3.528ZM73.6544 4.514V14H70.7474V4.514H73.6544Z"
    fill="#EBEBEB"
  />
  <path
    d="M77.121 14.136C76.611 14.136 76.1917 13.9887 75.863 13.694C75.5457 13.388 75.387 13.014 75.387 12.572C75.387 12.1187 75.5457 11.739 75.863 11.433C76.1917 11.127 76.611 10.974 77.121 10.974C77.6197 10.974 78.0277 11.127 78.345 11.433C78.6737 11.739 78.838 12.1187 78.838 12.572C78.838 13.014 78.6737 13.388 78.345 13.694C78.0277 13.9887 77.6197 14.136 77.121 14.136Z"
    fill="#38996C"
  />
</svg>
